<svg version="1.1" xmlns="http://www.w3.org/2000/svg" xmlns:xlink="http://www.w3.org/1999/xlink" viewBox="0 0 200 200"><path d="M171.8,115.5h-12.5V36.3h-125v125h79.2v12.5H30.1c-4.6,0-8.3-3.7-8.3-8.3c0,0,0,0,0,0V32.2c0-4.6,3.7-8.3,8.3-8.3l0,0h133.3c4.6,0,8.3,3.7,8.3,8.3l0,0V115.5z M124.8,65.5c0,2.3-1.5,4.2-3.5,4.2h0H69.6c-1.9,0-3.5-1.9-3.5-4.2v-4.2c0-2.3,1.5-4.2,3.5-4.2h51.8c1.9,0,3.5,1.9,3.5,4.2v0C124.8,61.3,124.8,65.5,124.8,65.5z M146.8,98.6c0,2.3-1.9,4.2-4.2,4.2H51c-2.3,0-4.2-1.9-4.2-4.2v-4.2c0-2.3,1.9-4.2,4.2-4.2h91.7c2.3,0,4.2,1.9,4.2,4.2v0V98.6z M66.1,132.2c0,2.3-0.7,4.2-1.6,4.2H48.4c-0.9,0-1.6-1.9-1.6-4.2V128c0-2.3,0.7-4.2,1.6-4.2h16.1c0.9,0,1.6,1.9,1.6,4.2C66.1,128,66.1,132.2,66.1,132.2z M180.1,155.1c0,2.3-1.9,4.2-4.2,4.2h-18.7l0,18.8c0,2.3-1.9,4.2-4.2,4.2h-4.2c-2.3,0-4.2-1.9-4.2-4.2l0-18.8H126c-2.3,0-4.2-1.9-4.2-4.2v-4.2c0-2.3,1.9-4.2,4.2-4.2h18.8l0-18.8c0-2.3,1.9-4.2,4.2-4.2h4.2c2.3,0,4.2,1.9,4.2,4.2l0,18.8H176c2.3,0,4.2,1.9,4.2,4.2V155.1L180.1,155.1z M116.7,132.2c0,2.3-0.9,4.2-2,4.2h0H85c-1.1,0-2-1.9-2-4.2V128c0-2.3,0.9-4.2,2-4.2h29.6c1.1,0,2,1.9,2,4.2v0C116.7,128,116.7,132.2,116.7,132.2z"/></svg>