<svg viewBox="0 0 1024 1024" version="1.1" xmlns="http://www.w3.org/2000/svg" width="200" height="200"><path d="M632 100.1v173c0 16.5 13.4 29.9 30 29.9h173.8c13.4 0 20.1-16.1 10.6-25.5l-188.8-188c-9.4-9.4-25.6-2.8-25.6 10.6z"></path><path d="M842 377.6H647c-49.7 0-90-40.1-90-89.6V93.9c0-16.5-13.4-29.9-30-29.9H212c-33.1 0-60 26.7-60 59.7v776.5c0 33 26.9 59.7 60 59.7h600c33.1 0 60-26.7 60-59.7V407.5c0-16.5-13.4-29.9-30-29.9zM624.5 638.9h-75v74.7c0 20.5-16.9 37.3-37.5 37.3s-37.5-16.8-37.5-37.3v-74.7h-75c-20.6 0-37.5-16.8-37.5-37.3 0-20.5 16.9-37.3 37.5-37.3h75v-74.7c0-20.5 16.9-37.3 37.5-37.3s37.5 16.8 37.5 37.3v74.7h75c20.6 0 37.5 16.8 37.5 37.3 0 20.5-16.9 37.3-37.5 37.3z"></path></svg>