<svg viewBox="0 0 1024 1024" version="1.1" xmlns="http://www.w3.org/2000/svg" width="200" height="200"><path d="M338.1 341.4h229.1c20.7 0 37.7-17 37.7-37.7V129.5c0-20.7-17-37.7-37.7-37.7H338.1c-20.7 0-37.7 17-37.7 37.7v174.1c0 20.8 17 37.8 37.7 37.8z"></path><path d="M772 68.2h-82.5v292.1c0 12.3-10 22.3-22.3 22.3H232.4c-12.3 0-22.3-10-22.3-22.4l1.8-292h-69.2c-33.4 0-60.5 27.1-60.5 60.5V892c0 33.4 27.1 60.5 60.5 60.5h737.7c33.4 0 60.5-27.1 60.5-60.5V258.8L772 68.2z m57 765.5c0 17.7-14.5 32.3-32.3 32.3H240.3c-17.7 0-32.3-14.5-32.3-32.3V501.4c0-17.7 14.5-32.3 32.3-32.3h556.4c17.7 0 32.3 14.5 32.3 32.3v332.3z"></path><path d="M723.7 585.7H302.5c-16 0-29.1 13.1-29.1 29.1s13.1 29.1 29.1 29.1h421.2c16 0 29.1-13.1 29.1-29.1s-13.1-29.1-29.1-29.1zM723.7 737H302.5c-16 0-29.1 13.1-29.1 29.1s13.1 29.1 29.1 29.1h421.2c16 0 29.1-13.1 29.1-29.1S739.7 737 723.7 737z"></path></svg>