<svg viewBox="0 0 1024 1024" version="1.1" xmlns="http://www.w3.org/2000/svg" p-id="3474" width="200" height="200"><path d="M85.333333 170.666667h853.333334v725.333333H85.333333z" fill="#607D8B" p-id="3475"></path><path d="M128 661.333333h768v192H128z" fill="#FFFFFF" p-id="3476"></path><path d="M213.333333 661.333333h42.666667v149.333334h-42.666667zM277.333333 661.333333h42.666667v149.333334h-42.666667zM341.333333 661.333333h42.666667v149.333334h-42.666667zM469.333333 661.333333h42.666667v149.333334h-42.666667zM533.333333 661.333333h42.666667v149.333334h-42.666667zM661.333333 661.333333h42.666667v149.333334h-42.666667zM725.333333 661.333333h42.666667v149.333334h-42.666667zM789.333333 661.333333h42.666667v149.333334h-42.666667z" fill="#263238" p-id="3477"></path><path d="M192 256h21.333333v298.666667H192z" fill="#37474F" p-id="3478"></path><path d="M170.666667 298.666667h64v42.666666H170.666667z" fill="#CFD8DC" p-id="3479"></path><path d="M277.333333 256h21.333334v298.666667h-21.333334z" fill="#37474F" p-id="3480"></path><path d="M256 469.333333h64v42.666667h-64z" fill="#CFD8DC" p-id="3481"></path><path d="M362.666667 256h21.333333v298.666667h-21.333333z" fill="#37474F" p-id="3482"></path><path d="M341.333333 320h64v42.666667h-64z" fill="#CFD8DC" p-id="3483"></path><path d="M554.666667 298.666667m-42.666667 0a42.666667 42.666667 0 1 0 85.333333 0 42.666667 42.666667 0 1 0-85.333333 0Z" fill="#37474F" p-id="3484"></path><path d="M554.666667 298.666667m-21.333334 0a21.333333 21.333333 0 1 0 42.666667 0 21.333333 21.333333 0 1 0-42.666667 0Z" fill="#CFD8DC" p-id="3485"></path><path d="M682.666667 298.666667m-42.666667 0a42.666667 42.666667 0 1 0 85.333333 0 42.666667 42.666667 0 1 0-85.333333 0Z" fill="#37474F" p-id="3486"></path><path d="M682.666667 298.666667m-21.333334 0a21.333333 21.333333 0 1 0 42.666667 0 21.333333 21.333333 0 1 0-42.666667 0Z" fill="#CFD8DC" p-id="3487"></path><path d="M810.666667 298.666667m-42.666667 0a42.666667 42.666667 0 1 0 85.333333 0 42.666667 42.666667 0 1 0-85.333333 0Z" fill="#37474F" p-id="3488"></path><path d="M810.666667 298.666667m-21.333334 0a21.333333 21.333333 0 1 0 42.666667 0 21.333333 21.333333 0 1 0-42.666667 0Z" fill="#CFD8DC" p-id="3489"></path><path d="M512 448h85.333333v42.666667h-85.333333zM640 448h85.333333v42.666667h-85.333333zM768 448h85.333333v42.666667h-85.333333zM512 384h85.333333v42.666667h-85.333333zM640 384h85.333333v42.666667h-85.333333zM768 384h85.333333v42.666667h-85.333333zM512 512h85.333333v42.666667h-85.333333zM640 512h85.333333v42.666667h-85.333333zM768 512h85.333333v42.666667h-85.333333z" fill="#4DD0E1" p-id="3490"></path></svg>